<?xml version="1.0" encoding="utf-8"?>
<!-- Generator: Adobe Illustrator 22.0.1, SVG Export Plug-In . SVG Version: 6.00 Build 0)  -->
<svg version="1.1" id="Capa_1" xmlns="http://www.w3.org/2000/svg" xmlns:xlink="http://www.w3.org/1999/xlink" x="0px" y="0px"
	 viewBox="0 0 425.2 425.2" style="enable-background:new 0 0 425.2 425.2;" xml:space="preserve">
<style type="text/css">
	.st0{opacity:0.2;}
</style>
<g class="st0">
	<polygon points="166,2.7 289.8,118 356.3,46.5 	"/>
	<polygon points="57.5,357.1 95.4,192.3 0.3,170.4 	"/>
	<polygon points="418.6,274 257,323.5 285.6,416.8 	"/>
	<polygon points="79.7,377.8 241.3,328.3 270,421.6 	"/>
	<polygon points="137,11.6 3.9,154.6 99.1,176.5 	"/>
	<polygon points="425.5,244.3 368.2,57.6 301.7,129 	"/>
	<polygon points="202.1,200.2 114.9,180.1 149.7,29 	"/>
	<polygon points="210.4,227.1 236.7,312.7 88.4,358.1 	"/>
	<polygon points="229.6,206.5 290.6,140.9 404.1,246.6 	"/>
	<polygon points="217.7,195.4 278.6,129.8 165.2,24.3 	"/>
	<polygon points="198.5,216 111.3,195.9 76.5,347 	"/>
	<polygon points="226,222.3 252.2,307.9 400.4,262.4 	"/>
</g>
</svg>
